<svg xmlns="http://www.w3.org/2000/svg" viewBox="0 0 128 192" shape-rendering="crispEdges" role="img" aria-label="FDP verso basket">
<title>FDP verso basket</title>
<path class="f-edge" fill="#2A2126" d="M14 0h100v2h-100zM10 1h4v2h-4zM114 1h4v2h-4zM8 2h2v2h-2zM118 2h2v2h-2zM7 3h1v3h-1zM10 3h1v1h-1zM117 3h1v1h-1zM120 3h1v3h-1zM6 4h1v2h-1zM8 4h1v1h-1zM119 4h1v1h-1zM121 4h1v2h-1zM5 5h1v3h-1zM122 5h1v3h-1zM4 6h1v3h-1zM123 6h1v3h-1zM3 7h1v4h-1zM124 7h1v4h-1zM2 8h1v6h-1zM125 8h1v6h-1zM1 10h1v172h-1zM126 10h1v172h-1zM0 14h1v164h-1zM127 14h1v164h-1zM2 178h1v6h-1zM125 178h1v6h-1zM3 181h1v4h-1zM124 181h1v4h-1zM4 183h1v3h-1zM123 183h1v3h-1zM5 184h1v3h-1zM122 184h1v3h-1zM6 186h2v2h-2zM120 186h2v2h-2zM8 187h1v3h-1zM119 187h1v3h-1zM7 188h1v1h-1zM9 188h2v2h-2zM117 188h2v2h-2zM120 188h1v1h-1zM11 189h3v2h-3zM114 189h3v2h-3zM10 190h1v1h-1zM14 190h100v2h-100zM117 190h1v1h-1z"/>
<path class="f-frame-hi" fill="#FBF7EE" d="M14 2h96v2h-96zM11 3h3v2h-3zM110 3h3v2h-3zM9 4h2v3h-2zM14 4h2v1h-2zM113 4h2v2h-2zM8 5h1v3h-1zM11 5h2v1h-2zM115 5h1v2h-1zM6 6h2v4h-2zM116 6h2v2h-2zM9 7h1v1h-1zM5 8h1v5h-1zM118 8h1v2h-1zM4 9h1v7h-1zM119 9h1v2h-1zM6 10h1v1h-1zM3 11h1v166h-1zM120 11h1v2h-1zM2 14h1v160h-1zM121 14h1v2h-1zM4 174h1v5h-1zM5 177h1v3h-1zM6 179h1v3h-1zM7 180h1v2h-1zM8 182h2v1h-2zM9 183h2v1h-2zM11 184h2v1h-2zM14 185h2v1h-2z"/>
<path class="f-frame" fill="#F1EBDD" d="M16 4h94v4h-94zM13 5h3v3h-3zM110 5h3v3h-3zM11 6h2v3h-2zM113 6h2v3h-2zM10 7h1v4h-1zM115 7h1v2h-1zM8 8h2v4h-2zM13 8h2v1h-2zM116 8h2v2h-2zM11 9h1v1h-1zM7 10h1v170h-1zM117 10h2v1h-2zM6 11h1v168h-1zM118 11h2v1h-2zM8 12h1v3h-1zM119 12h1v3h-1zM5 13h1v164h-1zM120 13h1v164h-1zM4 16h1v158h-1zM121 16h1v158h-1zM8 177h1v5h-1zM119 177h1v2h-1zM9 180h1v2h-1zM10 181h1v2h-1zM117 181h1v1h-1zM11 182h1v2h-1zM12 183h3v1h-3zM113 183h2v1h-2zM13 184h100v1h-100zM16 185h94v1h-94z"/>
<path class="f-frame-shade" fill="#C4BCAA" d="M110 2h4v1h-4zM113 3h4v1h-4zM115 4h4v1h-4zM116 5h4v1h-4zM118 6h4v2h-4zM119 8h4v1h-4zM120 9h4v2h-4zM121 11h4v3h-4zM122 14h4v164h-4zM2 174h1v4h-1zM121 174h1v12h-1zM3 177h1v4h-1zM120 177h1v9h-1zM122 178h3v3h-3zM4 179h1v4h-1zM119 179h1v8h-1zM5 180h1v4h-1zM118 180h1v8h-1zM122 181h2v2h-2zM6 182h2v4h-2zM116 182h2v6h-2zM8 183h1v4h-1zM115 183h1v6h-1zM122 183h1v1h-1zM9 184h2v4h-2zM113 184h2v5h-2zM11 185h3v4h-3zM110 185h3v5h-3zM14 186h96v4h-96zM116 188h1v1h-1zM113 189h1v1h-1z"/>
<path class="f-back-cream" fill="#F1E3D3" d="M15 11h98v3h-98zM13 12h2v4h-2zM113 12h2v4h-2zM12 13h1v166h-1zM115 13h1v166h-1zM15 14h1v1h-1zM112 14h1v1h-1zM11 15h1v162h-1zM116 15h1v162h-1zM13 16h1v164h-1zM26 16h1v8h-1zM29 16h1v8h-1zM42 16h1v8h-1zM45 16h1v8h-1zM58 16h1v8h-1zM61 16h1v8h-1zM74 16h1v8h-1zM77 16h1v8h-1zM90 16h1v8h-1zM93 16h1v8h-1zM106 16h1v8h-1zM109 16h1v8h-1zM114 16h1v164h-1zM16 18h8v1h-8zM32 18h8v1h-8zM48 18h8v1h-8zM64 18h8v1h-8zM80 18h8v1h-8zM96 18h8v1h-8zM16 21h8v1h-8zM32 21h8v1h-8zM48 21h8v1h-8zM64 21h8v1h-8zM80 21h8v1h-8zM96 21h8v1h-8zM18 24h1v8h-1zM21 24h1v8h-1zM34 24h1v8h-1zM37 24h1v8h-1zM50 24h1v8h-1zM53 24h1v8h-1zM66 24h1v8h-1zM69 24h1v8h-1zM82 24h1v8h-1zM85 24h1v8h-1zM98 24h1v8h-1zM101 24h1v8h-1zM24 26h8v1h-8zM40 26h8v1h-8zM56 26h8v1h-8zM72 26h8v1h-8zM88 26h8v1h-8zM104 26h8v1h-8zM24 29h8v1h-8zM40 29h8v1h-8zM56 29h8v1h-8zM72 29h8v1h-8zM88 29h8v1h-8zM104 29h8v1h-8zM26 32h1v8h-1zM29 32h1v8h-1zM42 32h1v8h-1zM45 32h1v8h-1zM58 32h1v8h-1zM61 32h1v8h-1zM74 32h1v8h-1zM77 32h1v8h-1zM90 32h1v8h-1zM93 32h1v8h-1zM106 32h1v8h-1zM109 32h1v8h-1zM16 34h8v1h-8zM32 34h8v1h-8zM48 34h8v1h-8zM64 34h8v1h-8zM80 34h8v1h-8zM96 34h8v1h-8zM16 37h8v1h-8zM32 37h8v1h-8zM48 37h8v1h-8zM64 37h8v1h-8zM80 37h8v1h-8zM96 37h8v1h-8zM18 40h1v8h-1zM21 40h1v8h-1zM34 40h1v8h-1zM37 40h1v8h-1zM50 40h1v8h-1zM53 40h1v8h-1zM66 40h1v8h-1zM69 40h1v8h-1zM82 40h1v8h-1zM85 40h1v8h-1zM98 40h1v8h-1zM101 40h1v8h-1zM24 42h8v1h-8zM40 42h8v1h-8zM56 42h8v1h-8zM72 42h8v1h-8zM88 42h8v1h-8zM104 42h8v1h-8zM24 45h8v1h-8zM40 45h8v1h-8zM56 45h8v1h-8zM72 45h8v1h-8zM88 45h8v1h-8zM104 45h8v1h-8zM26 48h1v8h-1zM29 48h1v8h-1zM42 48h1v8h-1zM45 48h1v8h-1zM58 48h1v8h-1zM61 48h1v8h-1zM74 48h1v8h-1zM77 48h1v8h-1zM90 48h1v8h-1zM93 48h1v8h-1zM106 48h1v8h-1zM109 48h1v8h-1zM16 50h8v1h-8zM32 50h8v1h-8zM48 50h8v1h-8zM64 50h8v1h-8zM80 50h8v1h-8zM96 50h8v1h-8zM16 53h8v1h-8zM32 53h8v1h-8zM48 53h8v1h-8zM64 53h8v1h-8zM80 53h8v1h-8zM96 53h8v1h-8zM18 56h1v8h-1zM21 56h1v8h-1zM34 56h1v8h-1zM37 56h1v8h-1zM50 56h1v8h-1zM53 56h1v8h-1zM66 56h1v8h-1zM69 56h1v8h-1zM82 56h1v8h-1zM85 56h1v8h-1zM98 56h1v8h-1zM101 56h1v8h-1zM24 58h8v1h-8zM40 58h8v1h-8zM56 58h8v1h-8zM72 58h8v1h-8zM88 58h8v1h-8zM104 58h8v1h-8zM24 61h8v1h-8zM40 61h8v1h-8zM56 61h8v1h-8zM72 61h8v1h-8zM88 61h8v1h-8zM104 61h8v1h-8zM26 64h1v8h-1zM29 64h1v8h-1zM42 64h1v8h-1zM45 64h1v8h-1zM58 64h1v8h-1zM61 64h1v8h-1zM74 64h1v8h-1zM77 64h1v8h-1zM90 64h1v8h-1zM93 64h1v8h-1zM106 64h1v8h-1zM109 64h1v8h-1zM16 66h8v1h-8zM32 66h8v1h-8zM48 66h8v1h-8zM64 66h8v1h-8zM80 66h8v1h-8zM96 66h8v1h-8zM16 69h8v1h-8zM32 69h8v1h-8zM48 69h8v1h-8zM64 69h8v1h-8zM80 69h8v1h-8zM96 69h8v1h-8zM18 72h1v8h-1zM21 72h1v8h-1zM34 72h1v8h-1zM37 72h1v8h-1zM50 72h1v8h-1zM53 72h1v8h-1zM66 72h1v8h-1zM69 72h1v8h-1zM82 72h1v8h-1zM85 72h1v8h-1zM98 72h1v8h-1zM101 72h1v8h-1zM24 74h8v1h-8zM40 74h8v1h-8zM56 74h8v1h-8zM72 74h8v1h-8zM88 74h8v1h-8zM104 74h8v1h-8zM24 77h8v1h-8zM40 77h8v1h-8zM56 77h8v1h-8zM72 77h8v1h-8zM88 77h8v1h-8zM104 77h8v1h-8zM26 80h1v8h-1zM29 80h1v8h-1zM42 80h1v8h-1zM45 80h1v8h-1zM58 80h1v8h-1zM61 80h1v8h-1zM74 80h1v8h-1zM77 80h1v8h-1zM90 80h1v8h-1zM93 80h1v8h-1zM106 80h1v8h-1zM109 80h1v8h-1zM16 82h8v1h-8zM32 82h8v1h-8zM48 82h8v1h-8zM64 82h8v1h-8zM80 82h8v1h-8zM96 82h8v1h-8zM16 85h8v1h-8zM32 85h8v1h-8zM48 85h8v1h-8zM64 85h8v1h-8zM80 85h8v1h-8zM96 85h8v1h-8zM18 88h1v8h-1zM21 88h1v8h-1zM34 88h1v8h-1zM37 88h1v8h-1zM50 88h1v8h-1zM53 88h1v8h-1zM66 88h1v8h-1zM69 88h1v8h-1zM82 88h1v8h-1zM85 88h1v8h-1zM98 88h1v8h-1zM101 88h1v8h-1zM24 90h8v1h-8zM40 90h8v1h-8zM56 90h8v1h-8zM72 90h8v1h-8zM88 90h8v1h-8zM104 90h8v1h-8zM24 93h8v1h-8zM40 93h8v1h-8zM56 93h8v1h-8zM72 93h8v1h-8zM88 93h8v1h-8zM104 93h8v1h-8zM26 96h1v8h-1zM29 96h1v8h-1zM42 96h1v8h-1zM45 96h1v8h-1zM58 96h1v8h-1zM61 96h1v8h-1zM74 96h1v8h-1zM77 96h1v8h-1zM90 96h1v8h-1zM93 96h1v8h-1zM106 96h1v8h-1zM109 96h1v8h-1zM16 98h8v1h-8zM32 98h8v1h-8zM48 98h8v1h-8zM64 98h8v1h-8zM80 98h8v1h-8zM96 98h8v1h-8zM16 101h8v1h-8zM32 101h8v1h-8zM48 101h8v1h-8zM64 101h8v1h-8zM80 101h8v1h-8zM96 101h8v1h-8zM18 104h1v8h-1zM21 104h1v8h-1zM34 104h1v8h-1zM37 104h1v8h-1zM50 104h1v8h-1zM53 104h1v8h-1zM66 104h1v8h-1zM69 104h1v8h-1zM82 104h1v8h-1zM85 104h1v8h-1zM98 104h1v8h-1zM101 104h1v8h-1zM24 106h8v1h-8zM40 106h8v1h-8zM56 106h8v1h-8zM72 106h8v1h-8zM88 106h8v1h-8zM104 106h8v1h-8zM24 109h8v1h-8zM40 109h8v1h-8zM56 109h8v1h-8zM72 109h8v1h-8zM88 109h8v1h-8zM104 109h8v1h-8zM26 112h1v8h-1zM29 112h1v8h-1zM42 112h1v8h-1zM45 112h1v8h-1zM58 112h1v8h-1zM61 112h1v8h-1zM74 112h1v8h-1zM77 112h1v8h-1zM90 112h1v8h-1zM93 112h1v8h-1zM106 112h1v8h-1zM109 112h1v8h-1zM16 114h8v1h-8zM32 114h8v1h-8zM48 114h8v1h-8zM64 114h8v1h-8zM80 114h8v1h-8zM96 114h8v1h-8zM16 117h8v1h-8zM32 117h8v1h-8zM48 117h8v1h-8zM64 117h8v1h-8zM80 117h8v1h-8zM96 117h8v1h-8zM18 120h1v8h-1zM21 120h1v8h-1zM34 120h1v8h-1zM37 120h1v8h-1zM50 120h1v8h-1zM53 120h1v8h-1zM66 120h1v8h-1zM69 120h1v8h-1zM82 120h1v8h-1zM85 120h1v8h-1zM98 120h1v8h-1zM101 120h1v8h-1zM24 122h8v1h-8zM40 122h8v1h-8zM56 122h8v1h-8zM72 122h8v1h-8zM88 122h8v1h-8zM104 122h8v1h-8zM24 125h8v1h-8zM40 125h8v1h-8zM56 125h8v1h-8zM72 125h8v1h-8zM88 125h8v1h-8zM104 125h8v1h-8zM26 128h1v8h-1zM29 128h1v8h-1zM42 128h1v8h-1zM45 128h1v8h-1zM58 128h1v8h-1zM61 128h1v8h-1zM74 128h1v8h-1zM77 128h1v8h-1zM90 128h1v8h-1zM93 128h1v8h-1zM106 128h1v8h-1zM109 128h1v8h-1zM16 130h8v1h-8zM32 130h8v1h-8zM48 130h8v1h-8zM64 130h8v1h-8zM80 130h8v1h-8zM96 130h8v1h-8zM16 133h8v1h-8zM32 133h8v1h-8zM48 133h8v1h-8zM64 133h8v1h-8zM80 133h8v1h-8zM96 133h8v1h-8zM18 136h1v8h-1zM21 136h1v8h-1zM34 136h1v8h-1zM37 136h1v8h-1zM50 136h1v8h-1zM53 136h1v8h-1zM66 136h1v8h-1zM69 136h1v8h-1zM82 136h1v8h-1zM85 136h1v8h-1zM98 136h1v8h-1zM101 136h1v8h-1zM24 138h8v1h-8zM40 138h8v1h-8zM56 138h8v1h-8zM72 138h8v1h-8zM88 138h8v1h-8zM104 138h8v1h-8zM24 141h8v1h-8zM40 141h8v1h-8zM56 141h8v1h-8zM72 141h8v1h-8zM88 141h8v1h-8zM104 141h8v1h-8zM26 144h1v8h-1zM29 144h1v8h-1zM42 144h1v8h-1zM45 144h1v8h-1zM58 144h1v8h-1zM61 144h1v8h-1zM74 144h1v8h-1zM77 144h1v8h-1zM90 144h1v8h-1zM93 144h1v8h-1zM106 144h1v8h-1zM109 144h1v8h-1zM16 146h8v1h-8zM32 146h8v1h-8zM48 146h8v1h-8zM64 146h8v1h-8zM80 146h8v1h-8zM96 146h8v1h-8zM16 149h8v1h-8zM32 149h8v1h-8zM48 149h8v1h-8zM64 149h8v1h-8zM80 149h8v1h-8zM96 149h8v1h-8zM18 152h1v8h-1zM21 152h1v8h-1zM34 152h1v8h-1zM37 152h1v8h-1zM50 152h1v8h-1zM53 152h1v8h-1zM66 152h1v8h-1zM69 152h1v8h-1zM82 152h1v8h-1zM85 152h1v8h-1zM98 152h1v8h-1zM101 152h1v8h-1zM24 154h8v1h-8zM40 154h8v1h-8zM56 154h8v1h-8zM72 154h8v1h-8zM88 154h8v1h-8zM104 154h8v1h-8zM24 157h8v1h-8zM40 157h8v1h-8zM56 157h8v1h-8zM72 157h8v1h-8zM88 157h8v1h-8zM104 157h8v1h-8zM26 160h1v8h-1zM29 160h1v8h-1zM42 160h1v8h-1zM45 160h1v8h-1zM58 160h1v8h-1zM61 160h1v8h-1zM74 160h1v8h-1zM77 160h1v8h-1zM90 160h1v8h-1zM93 160h1v8h-1zM106 160h1v8h-1zM109 160h1v8h-1zM16 162h8v1h-8zM32 162h8v1h-8zM48 162h8v1h-8zM64 162h8v1h-8zM80 162h8v1h-8zM96 162h8v1h-8zM16 165h8v1h-8zM32 165h8v1h-8zM48 165h8v1h-8zM64 165h8v1h-8zM80 165h8v1h-8zM96 165h8v1h-8zM18 168h1v8h-1zM21 168h1v8h-1zM34 168h1v8h-1zM37 168h1v8h-1zM50 168h1v8h-1zM53 168h1v8h-1zM66 168h1v8h-1zM69 168h1v8h-1zM82 168h1v8h-1zM85 168h1v8h-1zM98 168h1v8h-1zM101 168h1v8h-1zM24 170h8v1h-8zM40 170h8v1h-8zM56 170h8v1h-8zM72 170h8v1h-8zM88 170h8v1h-8zM104 170h8v1h-8zM24 173h8v1h-8zM40 173h8v1h-8zM56 173h8v1h-8zM72 173h8v1h-8zM88 173h8v1h-8zM104 173h8v1h-8zM14 176h1v4h-1zM113 176h1v4h-1zM15 177h1v4h-1zM112 177h1v4h-1zM16 178h96v3h-96z"/>
<path class="f-back-pink" fill="#C4869E" d="M15 8h98v3h-98zM12 9h3v3h-3zM113 9h3v3h-3zM11 10h1v5h-1zM116 10h1v5h-1zM10 11h1v170h-1zM117 11h1v170h-1zM9 12h1v168h-1zM12 12h1v1h-1zM115 12h1v1h-1zM118 12h1v168h-1zM8 15h1v162h-1zM119 15h1v162h-1zM16 16h8v2h-8zM32 16h8v2h-8zM48 16h8v2h-8zM64 16h8v2h-8zM80 16h8v2h-8zM96 16h8v2h-8zM16 19h8v2h-8zM32 19h8v2h-8zM48 19h8v2h-8zM64 19h8v2h-8zM80 19h8v2h-8zM96 19h8v2h-8zM16 22h8v2h-8zM32 22h8v2h-8zM48 22h8v2h-8zM64 22h8v2h-8zM80 22h8v2h-8zM96 22h8v2h-8zM24 24h8v2h-8zM40 24h8v2h-8zM56 24h8v2h-8zM72 24h8v2h-8zM88 24h8v2h-8zM104 24h8v2h-8zM24 27h8v2h-8zM40 27h8v2h-8zM56 27h8v2h-8zM72 27h8v2h-8zM88 27h8v2h-8zM104 27h8v2h-8zM24 30h8v2h-8zM40 30h8v2h-8zM56 30h8v2h-8zM72 30h8v2h-8zM88 30h8v2h-8zM104 30h8v2h-8zM16 32h8v2h-8zM32 32h8v2h-8zM48 32h8v2h-8zM64 32h8v2h-8zM80 32h8v2h-8zM96 32h8v2h-8zM16 35h8v2h-8zM32 35h8v2h-8zM48 35h8v2h-8zM64 35h8v2h-8zM80 35h8v2h-8zM96 35h8v2h-8zM16 38h8v2h-8zM32 38h8v2h-8zM48 38h8v2h-8zM64 38h8v2h-8zM80 38h8v2h-8zM96 38h8v2h-8zM24 40h8v2h-8zM40 40h8v2h-8zM56 40h8v2h-8zM72 40h8v2h-8zM88 40h8v2h-8zM104 40h8v2h-8zM24 43h8v2h-8zM40 43h8v2h-8zM56 43h8v2h-8zM72 43h8v2h-8zM88 43h8v2h-8zM104 43h8v2h-8zM24 46h8v2h-8zM40 46h8v2h-8zM56 46h8v2h-8zM72 46h8v2h-8zM88 46h8v2h-8zM104 46h8v2h-8zM16 48h8v2h-8zM32 48h8v2h-8zM48 48h8v2h-8zM64 48h8v2h-8zM80 48h8v2h-8zM96 48h8v2h-8zM16 51h8v2h-8zM32 51h8v2h-8zM48 51h8v2h-8zM64 51h8v2h-8zM80 51h8v2h-8zM96 51h8v2h-8zM16 54h8v2h-8zM32 54h8v2h-8zM48 54h8v2h-8zM64 54h8v2h-8zM80 54h8v2h-8zM96 54h8v2h-8zM24 56h8v2h-8zM40 56h8v2h-8zM56 56h8v2h-8zM72 56h8v2h-8zM88 56h8v2h-8zM104 56h8v2h-8zM24 59h8v2h-8zM40 59h8v2h-8zM56 59h8v2h-8zM72 59h8v2h-8zM88 59h8v2h-8zM104 59h8v2h-8zM24 62h8v2h-8zM40 62h8v2h-8zM56 62h8v2h-8zM72 62h8v2h-8zM88 62h8v2h-8zM104 62h8v2h-8zM16 64h8v2h-8zM32 64h8v2h-8zM48 64h8v2h-8zM64 64h8v2h-8zM80 64h8v2h-8zM96 64h8v2h-8zM16 67h8v2h-8zM32 67h8v2h-8zM48 67h8v2h-8zM64 67h8v2h-8zM80 67h8v2h-8zM96 67h8v2h-8zM16 70h8v2h-8zM32 70h8v2h-8zM48 70h8v2h-8zM64 70h8v2h-8zM80 70h8v2h-8zM96 70h8v2h-8zM24 72h8v2h-8zM40 72h8v2h-8zM56 72h8v2h-8zM72 72h8v2h-8zM88 72h8v2h-8zM104 72h8v2h-8zM24 75h8v2h-8zM40 75h8v2h-8zM56 75h8v2h-8zM72 75h8v2h-8zM88 75h8v2h-8zM104 75h8v2h-8zM24 78h8v2h-8zM40 78h8v2h-8zM56 78h8v2h-8zM72 78h8v2h-8zM88 78h8v2h-8zM104 78h8v2h-8zM16 80h8v2h-8zM32 80h8v2h-8zM48 80h8v2h-8zM64 80h8v2h-8zM80 80h8v2h-8zM96 80h8v2h-8zM16 83h8v2h-8zM32 83h8v2h-8zM48 83h8v2h-8zM64 83h8v2h-8zM80 83h8v2h-8zM96 83h8v2h-8zM16 86h8v2h-8zM32 86h8v2h-8zM48 86h8v2h-8zM64 86h8v2h-8zM80 86h8v2h-8zM96 86h8v2h-8zM24 88h8v2h-8zM40 88h8v2h-8zM56 88h8v2h-8zM72 88h8v2h-8zM88 88h8v2h-8zM104 88h8v2h-8zM24 91h8v2h-8zM40 91h8v2h-8zM56 91h8v2h-8zM72 91h8v2h-8zM88 91h8v2h-8zM104 91h8v2h-8zM24 94h8v2h-8zM40 94h8v2h-8zM56 94h8v2h-8zM72 94h8v2h-8zM88 94h8v2h-8zM104 94h8v2h-8zM16 96h8v2h-8zM32 96h8v2h-8zM48 96h8v2h-8zM64 96h8v2h-8zM80 96h8v2h-8zM96 96h8v2h-8zM16 99h8v2h-8zM32 99h8v2h-8zM48 99h8v2h-8zM64 99h8v2h-8zM80 99h8v2h-8zM96 99h8v2h-8zM16 102h8v2h-8zM32 102h8v2h-8zM48 102h8v2h-8zM64 102h8v2h-8zM80 102h8v2h-8zM96 102h8v2h-8zM24 104h8v2h-8zM40 104h8v2h-8zM56 104h8v2h-8zM72 104h8v2h-8zM88 104h8v2h-8zM104 104h8v2h-8zM24 107h8v2h-8zM40 107h8v2h-8zM56 107h8v2h-8zM72 107h8v2h-8zM88 107h8v2h-8zM104 107h8v2h-8zM24 110h8v2h-8zM40 110h8v2h-8zM56 110h8v2h-8zM72 110h8v2h-8zM88 110h8v2h-8zM104 110h8v2h-8zM16 112h8v2h-8zM32 112h8v2h-8zM48 112h8v2h-8zM64 112h8v2h-8zM80 112h8v2h-8zM96 112h8v2h-8zM16 115h8v2h-8zM32 115h8v2h-8zM48 115h8v2h-8zM64 115h8v2h-8zM80 115h8v2h-8zM96 115h8v2h-8zM16 118h8v2h-8zM32 118h8v2h-8zM48 118h8v2h-8zM64 118h8v2h-8zM80 118h8v2h-8zM96 118h8v2h-8zM24 120h8v2h-8zM40 120h8v2h-8zM56 120h8v2h-8zM72 120h8v2h-8zM88 120h8v2h-8zM104 120h8v2h-8zM24 123h8v2h-8zM40 123h8v2h-8zM56 123h8v2h-8zM72 123h8v2h-8zM88 123h8v2h-8zM104 123h8v2h-8zM24 126h8v2h-8zM40 126h8v2h-8zM56 126h8v2h-8zM72 126h8v2h-8zM88 126h8v2h-8zM104 126h8v2h-8zM16 128h8v2h-8zM32 128h8v2h-8zM48 128h8v2h-8zM64 128h8v2h-8zM80 128h8v2h-8zM96 128h8v2h-8zM16 131h8v2h-8zM32 131h8v2h-8zM48 131h8v2h-8zM64 131h8v2h-8zM80 131h8v2h-8zM96 131h8v2h-8zM16 134h8v2h-8zM32 134h8v2h-8zM48 134h8v2h-8zM64 134h8v2h-8zM80 134h8v2h-8zM96 134h8v2h-8zM24 136h8v2h-8zM40 136h8v2h-8zM56 136h8v2h-8zM72 136h8v2h-8zM88 136h8v2h-8zM104 136h8v2h-8zM24 139h8v2h-8zM40 139h8v2h-8zM56 139h8v2h-8zM72 139h8v2h-8zM88 139h8v2h-8zM104 139h8v2h-8zM24 142h8v2h-8zM40 142h8v2h-8zM56 142h8v2h-8zM72 142h8v2h-8zM88 142h8v2h-8zM104 142h8v2h-8zM16 144h8v2h-8zM32 144h8v2h-8zM48 144h8v2h-8zM64 144h8v2h-8zM80 144h8v2h-8zM96 144h8v2h-8zM16 147h8v2h-8zM32 147h8v2h-8zM48 147h8v2h-8zM64 147h8v2h-8zM80 147h8v2h-8zM96 147h8v2h-8zM16 150h8v2h-8zM32 150h8v2h-8zM48 150h8v2h-8zM64 150h8v2h-8zM80 150h8v2h-8zM96 150h8v2h-8zM24 152h8v2h-8zM40 152h8v2h-8zM56 152h8v2h-8zM72 152h8v2h-8zM88 152h8v2h-8zM104 152h8v2h-8zM24 155h8v2h-8zM40 155h8v2h-8zM56 155h8v2h-8zM72 155h8v2h-8zM88 155h8v2h-8zM104 155h8v2h-8zM24 158h8v2h-8zM40 158h8v2h-8zM56 158h8v2h-8zM72 158h8v2h-8zM88 158h8v2h-8zM104 158h8v2h-8zM16 160h8v2h-8zM32 160h8v2h-8zM48 160h8v2h-8zM64 160h8v2h-8zM80 160h8v2h-8zM96 160h8v2h-8zM16 163h8v2h-8zM32 163h8v2h-8zM48 163h8v2h-8zM64 163h8v2h-8zM80 163h8v2h-8zM96 163h8v2h-8zM16 166h8v2h-8zM32 166h8v2h-8zM48 166h8v2h-8zM64 166h8v2h-8zM80 166h8v2h-8zM96 166h8v2h-8zM24 168h8v2h-8zM40 168h8v2h-8zM56 168h8v2h-8zM72 168h8v2h-8zM88 168h8v2h-8zM104 168h8v2h-8zM24 171h8v2h-8zM40 171h8v2h-8zM56 171h8v2h-8zM72 171h8v2h-8zM88 171h8v2h-8zM104 171h8v2h-8zM24 174h8v2h-8zM40 174h8v2h-8zM56 174h8v2h-8zM72 174h8v2h-8zM88 174h8v2h-8zM104 174h8v2h-8zM11 177h1v5h-1zM116 177h1v5h-1zM12 179h1v4h-1zM115 179h1v4h-1zM13 180h2v3h-2zM113 180h2v3h-2zM15 181h98v3h-98z"/>
<path class="f-back-pink-d" fill="#9E6180" d="M16 14h96v2h-96zM15 15h1v162h-1zM112 15h1v162h-1zM14 16h1v160h-1zM24 16h2v8h-2zM27 16h2v8h-2zM30 16h2v8h-2zM40 16h2v8h-2zM43 16h2v8h-2zM46 16h2v8h-2zM56 16h2v8h-2zM59 16h2v8h-2zM62 16h2v8h-2zM72 16h2v8h-2zM75 16h2v8h-2zM78 16h2v8h-2zM88 16h2v8h-2zM91 16h2v8h-2zM94 16h2v8h-2zM104 16h2v8h-2zM107 16h2v8h-2zM110 16h2v8h-2zM113 16h1v160h-1zM16 24h2v8h-2zM19 24h2v8h-2zM22 24h2v8h-2zM32 24h2v8h-2zM35 24h2v8h-2zM38 24h2v8h-2zM48 24h2v8h-2zM51 24h2v8h-2zM54 24h2v8h-2zM64 24h2v8h-2zM67 24h2v8h-2zM70 24h2v8h-2zM80 24h2v8h-2zM83 24h2v8h-2zM86 24h2v8h-2zM96 24h2v8h-2zM99 24h2v8h-2zM102 24h2v8h-2zM24 32h2v8h-2zM27 32h2v8h-2zM30 32h2v8h-2zM40 32h2v8h-2zM43 32h2v8h-2zM46 32h2v8h-2zM56 32h2v8h-2zM59 32h2v8h-2zM62 32h2v8h-2zM72 32h2v8h-2zM75 32h2v8h-2zM78 32h2v8h-2zM88 32h2v8h-2zM91 32h2v8h-2zM94 32h2v8h-2zM104 32h2v8h-2zM107 32h2v8h-2zM110 32h2v8h-2zM16 40h2v8h-2zM19 40h2v8h-2zM22 40h2v8h-2zM32 40h2v8h-2zM35 40h2v8h-2zM38 40h2v8h-2zM48 40h2v8h-2zM51 40h2v8h-2zM54 40h2v8h-2zM64 40h2v8h-2zM67 40h2v8h-2zM70 40h2v8h-2zM80 40h2v8h-2zM83 40h2v8h-2zM86 40h2v8h-2zM96 40h2v8h-2zM99 40h2v8h-2zM102 40h2v8h-2zM24 48h2v8h-2zM27 48h2v8h-2zM30 48h2v8h-2zM40 48h2v8h-2zM43 48h2v8h-2zM46 48h2v8h-2zM56 48h2v8h-2zM59 48h2v8h-2zM62 48h2v8h-2zM72 48h2v8h-2zM75 48h2v8h-2zM78 48h2v8h-2zM88 48h2v8h-2zM91 48h2v8h-2zM94 48h2v8h-2zM104 48h2v8h-2zM107 48h2v8h-2zM110 48h2v8h-2zM16 56h2v8h-2zM19 56h2v8h-2zM22 56h2v8h-2zM32 56h2v8h-2zM35 56h2v8h-2zM38 56h2v8h-2zM48 56h2v8h-2zM51 56h2v8h-2zM54 56h2v8h-2zM64 56h2v8h-2zM67 56h2v8h-2zM70 56h2v8h-2zM80 56h2v8h-2zM83 56h2v8h-2zM86 56h2v8h-2zM96 56h2v8h-2zM99 56h2v8h-2zM102 56h2v8h-2zM24 64h2v8h-2zM27 64h2v8h-2zM30 64h2v8h-2zM40 64h2v8h-2zM43 64h2v8h-2zM46 64h2v8h-2zM56 64h2v8h-2zM59 64h2v8h-2zM62 64h2v8h-2zM72 64h2v8h-2zM75 64h2v8h-2zM78 64h2v8h-2zM88 64h2v8h-2zM91 64h2v8h-2zM94 64h2v8h-2zM104 64h2v8h-2zM107 64h2v8h-2zM110 64h2v8h-2zM16 72h2v8h-2zM19 72h2v8h-2zM22 72h2v8h-2zM32 72h2v8h-2zM35 72h2v8h-2zM38 72h2v8h-2zM48 72h2v8h-2zM51 72h2v8h-2zM54 72h2v8h-2zM64 72h2v8h-2zM67 72h2v8h-2zM70 72h2v8h-2zM80 72h2v8h-2zM83 72h2v8h-2zM86 72h2v8h-2zM96 72h2v8h-2zM99 72h2v8h-2zM102 72h2v8h-2zM24 80h2v8h-2zM27 80h2v8h-2zM30 80h2v8h-2zM40 80h2v8h-2zM43 80h2v8h-2zM46 80h2v8h-2zM56 80h2v8h-2zM59 80h2v8h-2zM62 80h2v8h-2zM72 80h2v8h-2zM75 80h2v8h-2zM78 80h2v8h-2zM88 80h2v8h-2zM91 80h2v8h-2zM94 80h2v8h-2zM104 80h2v8h-2zM107 80h2v8h-2zM110 80h2v8h-2zM16 88h2v8h-2zM19 88h2v8h-2zM22 88h2v8h-2zM32 88h2v8h-2zM35 88h2v8h-2zM38 88h2v8h-2zM48 88h2v8h-2zM51 88h2v8h-2zM54 88h2v8h-2zM64 88h2v8h-2zM67 88h2v8h-2zM70 88h2v8h-2zM80 88h2v8h-2zM83 88h2v8h-2zM86 88h2v8h-2zM96 88h2v8h-2zM99 88h2v8h-2zM102 88h2v8h-2zM24 96h2v8h-2zM27 96h2v8h-2zM30 96h2v8h-2zM40 96h2v8h-2zM43 96h2v8h-2zM46 96h2v8h-2zM56 96h2v8h-2zM59 96h2v8h-2zM62 96h2v8h-2zM72 96h2v8h-2zM75 96h2v8h-2zM78 96h2v8h-2zM88 96h2v8h-2zM91 96h2v8h-2zM94 96h2v8h-2zM104 96h2v8h-2zM107 96h2v8h-2zM110 96h2v8h-2zM16 104h2v8h-2zM19 104h2v8h-2zM22 104h2v8h-2zM32 104h2v8h-2zM35 104h2v8h-2zM38 104h2v8h-2zM48 104h2v8h-2zM51 104h2v8h-2zM54 104h2v8h-2zM64 104h2v8h-2zM67 104h2v8h-2zM70 104h2v8h-2zM80 104h2v8h-2zM83 104h2v8h-2zM86 104h2v8h-2zM96 104h2v8h-2zM99 104h2v8h-2zM102 104h2v8h-2zM24 112h2v8h-2zM27 112h2v8h-2zM30 112h2v8h-2zM40 112h2v8h-2zM43 112h2v8h-2zM46 112h2v8h-2zM56 112h2v8h-2zM59 112h2v8h-2zM62 112h2v8h-2zM72 112h2v8h-2zM75 112h2v8h-2zM78 112h2v8h-2zM88 112h2v8h-2zM91 112h2v8h-2zM94 112h2v8h-2zM104 112h2v8h-2zM107 112h2v8h-2zM110 112h2v8h-2zM16 120h2v8h-2zM19 120h2v8h-2zM22 120h2v8h-2zM32 120h2v8h-2zM35 120h2v8h-2zM38 120h2v8h-2zM48 120h2v8h-2zM51 120h2v8h-2zM54 120h2v8h-2zM64 120h2v8h-2zM67 120h2v8h-2zM70 120h2v8h-2zM80 120h2v8h-2zM83 120h2v8h-2zM86 120h2v8h-2zM96 120h2v8h-2zM99 120h2v8h-2zM102 120h2v8h-2zM24 128h2v8h-2zM27 128h2v8h-2zM30 128h2v8h-2zM40 128h2v8h-2zM43 128h2v8h-2zM46 128h2v8h-2zM56 128h2v8h-2zM59 128h2v8h-2zM62 128h2v8h-2zM72 128h2v8h-2zM75 128h2v8h-2zM78 128h2v8h-2zM88 128h2v8h-2zM91 128h2v8h-2zM94 128h2v8h-2zM104 128h2v8h-2zM107 128h2v8h-2zM110 128h2v8h-2zM16 136h2v8h-2zM19 136h2v8h-2zM22 136h2v8h-2zM32 136h2v8h-2zM35 136h2v8h-2zM38 136h2v8h-2zM48 136h2v8h-2zM51 136h2v8h-2zM54 136h2v8h-2zM64 136h2v8h-2zM67 136h2v8h-2zM70 136h2v8h-2zM80 136h2v8h-2zM83 136h2v8h-2zM86 136h2v8h-2zM96 136h2v8h-2zM99 136h2v8h-2zM102 136h2v8h-2zM24 144h2v8h-2zM27 144h2v8h-2zM30 144h2v8h-2zM40 144h2v8h-2zM43 144h2v8h-2zM46 144h2v8h-2zM56 144h2v8h-2zM59 144h2v8h-2zM62 144h2v8h-2zM72 144h2v8h-2zM75 144h2v8h-2zM78 144h2v8h-2zM88 144h2v8h-2zM91 144h2v8h-2zM94 144h2v8h-2zM104 144h2v8h-2zM107 144h2v8h-2zM110 144h2v8h-2zM16 152h2v8h-2zM19 152h2v8h-2zM22 152h2v8h-2zM32 152h2v8h-2zM35 152h2v8h-2zM38 152h2v8h-2zM48 152h2v8h-2zM51 152h2v8h-2zM54 152h2v8h-2zM64 152h2v8h-2zM67 152h2v8h-2zM70 152h2v8h-2zM80 152h2v8h-2zM83 152h2v8h-2zM86 152h2v8h-2zM96 152h2v8h-2zM99 152h2v8h-2zM102 152h2v8h-2zM24 160h2v8h-2zM27 160h2v8h-2zM30 160h2v8h-2zM40 160h2v8h-2zM43 160h2v8h-2zM46 160h2v8h-2zM56 160h2v8h-2zM59 160h2v8h-2zM62 160h2v8h-2zM72 160h2v8h-2zM75 160h2v8h-2zM78 160h2v8h-2zM88 160h2v8h-2zM91 160h2v8h-2zM94 160h2v8h-2zM104 160h2v8h-2zM107 160h2v8h-2zM110 160h2v8h-2zM16 168h2v10h-2zM19 168h2v10h-2zM22 168h2v10h-2zM32 168h2v10h-2zM35 168h2v10h-2zM38 168h2v10h-2zM48 168h2v10h-2zM51 168h2v10h-2zM54 168h2v10h-2zM64 168h2v10h-2zM67 168h2v10h-2zM70 168h2v10h-2zM80 168h2v10h-2zM83 168h2v10h-2zM86 168h2v10h-2zM96 168h2v10h-2zM99 168h2v10h-2zM102 168h2v10h-2zM18 176h1v2h-1zM21 176h1v2h-1zM24 176h8v2h-8zM34 176h1v2h-1zM37 176h1v2h-1zM40 176h8v2h-8zM50 176h1v2h-1zM53 176h1v2h-1zM56 176h8v2h-8zM66 176h1v2h-1zM69 176h1v2h-1zM72 176h8v2h-8zM82 176h1v2h-1zM85 176h1v2h-1zM88 176h8v2h-8zM98 176h1v2h-1zM101 176h1v2h-1zM104 176h8v2h-8z"/>
</svg>